<?xml version="1.0" standalone="no"?>
<!DOCTYPE svg PUBLIC "-//W3C//DTD SVG 20010904//EN"
 "http://www.w3.org/TR/2001/REC-SVG-20010904/DTD/svg10.dtd">
<svg version="1.0" xmlns="http://www.w3.org/2000/svg"
 width="300.000000pt" height="188.000000pt" viewBox="0 0 300.000000 188.000000"
 preserveAspectRatio="xMidYMid meet">
<metadata>
Created by potrace 1.10, written by Peter Selinger 2001-2011
</metadata>
<g transform="translate(0.000000,188.000000) scale(0.100000,-0.100000)"
fill="#000000" stroke="none">
<path d="M1558 1473 c-9 -10 -20 -28 -26 -39 -6 -12 -22 -24 -34 -27 -93 -23
-118 -31 -163 -57 -60 -35 -101 -72 -135 -122 -14 -21 -31 -38 -38 -38 -18 0
-89 -74 -84 -88 2 -7 -1 -12 -7 -12 -6 0 -11 -10 -11 -23 0 -27 -28 -70 -40
-62 -5 3 -12 0 -15 -6 -4 -6 -18 -8 -31 -5 -28 7 -66 -9 -82 -34 -26 -42 41
-109 115 -116 19 -2 41 -8 49 -15 11 -9 15 -8 20 4 3 9 14 19 25 22 11 4 17
11 14 16 -4 5 1 9 9 9 9 0 16 -4 16 -8 0 -5 16 -27 35 -49 l34 -40 -19 -41
c-28 -57 -64 -83 -108 -77 -34 4 -35 4 -15 -10 17 -12 20 -22 15 -60 -8 -75
45 -114 113 -83 14 6 25 15 25 20 0 4 9 8 20 8 20 0 28 25 10 32 -5 2 -6 9 -1
16 6 10 14 10 35 2 38 -14 54 -1 26 20 -23 17 -23 18 -4 28 11 6 26 7 33 2 19
-11 69 8 82 32 10 19 9 20 -17 14 -16 -4 -37 -9 -46 -12 -12 -4 -18 0 -18 10
0 22 -17 20 -30 -4 -6 -11 -21 -20 -33 -20 -14 0 -18 -3 -10 -8 15 -10 -66
-112 -98 -124 -27 -10 -69 15 -69 40 0 9 22 44 49 77 30 37 64 99 91 163 24
56 47 102 52 102 4 0 8 6 8 13 0 28 38 50 71 43 40 -8 33 1 -9 13 -23 7 -34 6
-43 -5 -9 -12 -15 -12 -28 -2 -14 12 -14 11 -3 -4 12 -15 11 -21 -5 -45 -20
-30 -47 -86 -57 -117 -5 -15 -9 -17 -19 -7 -7 7 -12 17 -12 24 -1 7 -6 11 -13
9 -11 -2 -16 11 -13 31 1 5 -3 6 -8 3 -5 -3 -11 1 -14 8 -10 24 11 79 42 114
34 36 81 43 130 17 25 -12 31 -12 47 0 11 8 28 15 39 16 17 1 17 2 3 6 -19 5
-24 18 -10 27 10 6 92 -69 92 -84 0 -6 5 -8 10 -5 18 11 10 23 -40 59 -41 29
-50 41 -50 66 0 41 -20 38 -21 -2 l-1 -33 -10 35 c-15 55 -26 56 -15 2 11 -55
5 -82 -18 -82 -11 0 -14 7 -10 28 5 23 4 24 -4 6 -8 -19 -13 -20 -56 -10 -40
9 -45 14 -40 31 4 11 7 28 6 38 0 9 5 17 11 17 6 0 8 11 6 25 -3 14 -1 25 4
25 5 0 13 -11 18 -25 11 -30 24 -34 15 -5 -6 18 -2 20 31 20 57 0 37 7 -41 14
-51 5 -65 4 -53 -4 14 -9 15 -16 7 -38 -6 -15 -17 -34 -25 -43 -10 -11 -12
-19 -5 -23 10 -7 -56 -111 -117 -185 l-28 -33 -50 14 c-27 8 -48 20 -47 26 2
7 -4 9 -14 5 -10 -4 -14 -2 -10 4 4 6 -1 10 -10 9 -23 -1 -29 35 -9 50 10 7
33 10 56 7 50 -7 66 6 97 75 27 61 79 122 104 122 10 0 28 19 43 44 52 88 153
151 264 162 l62 7 0 -78 0 -77 -27 6 c-22 5 -25 4 -13 -4 12 -9 10 -11 -10 -9
-38 2 -50 0 -50 -10 0 -5 10 -7 22 -3 15 4 19 2 14 -7 -5 -7 0 -21 11 -33 18
-21 18 -21 -17 -15 l-35 7 25 -20 c32 -25 39 -25 50 3 5 12 9 16 9 9 1 -20 41
5 41 26 0 12 9 7 30 -18 24 -29 31 -33 42 -22 11 11 10 12 -4 7 -17 -7 -22 3
-21 43 1 9 -3 10 -12 2 -8 -7 -16 -7 -19 -2 -8 13 20 35 45 37 28 2 43 -19 24
-35 -24 -20 -6 -32 19 -13 22 17 22 17 3 36 -26 26 -63 28 -83 6 -10 -11 -25
-19 -35 -19 -12 0 -16 -5 -13 -15 7 -17 -22 -21 -45 -6 -19 12 -5 31 23 31 13
0 35 11 50 25 21 19 36 24 61 22 19 -3 41 -8 48 -13 7 -5 4 -1 -7 9 -14 13
-31 17 -52 15 -21 -2 -30 0 -26 6 8 14 10 46 3 46 -4 0 -13 -15 -20 -32 l-14
-33 -4 28 c-3 16 2 36 9 45 9 11 10 14 1 8 -16 -9 -18 86 -3 115 17 32 64 24
110 -17 40 -36 47 -59 19 -59 -9 0 -13 -9 -11 -24 3 -18 0 -22 -12 -18 -11 5
-16 1 -16 -13 0 -12 -7 -20 -17 -21 -12 0 -7 -5 12 -14 31 -14 50 -10 26 4 -7
5 -11 13 -7 19 3 6 29 -13 58 -44 48 -51 79 -66 93 -44 10 16 25 12 25 -6 0
-9 -6 -14 -12 -11 -7 2 -22 1 -32 -3 -19 -6 -19 -7 3 -13 15 -4 29 1 44 16 12
12 16 22 10 24 -8 3 -7 15 4 40 16 40 11 86 -12 117 -8 11 -15 15 -15 10 0 -5
-17 -8 -37 -6 -35 3 -40 0 -63 -37 -41 -66 -57 -49 -19 19 14 24 27 36 36 33
8 -3 13 0 11 7 -2 7 3 15 10 17 6 3 12 0 12 -5 0 -6 9 -8 19 -5 28 7 78 -26
96 -64 9 -18 15 -53 14 -78 -3 -41 0 -47 44 -85 51 -45 58 -70 31 -109 -23
-32 -73 -52 -98 -39 -13 7 -16 7 -12 -1 5 -7 -5 -11 -28 -11 -25 0 -38 6 -46
19 -23 44 -1 111 37 111 21 0 22 -2 13 -21 -7 -11 -9 -23 -7 -26 3 -2 8 5 12
16 3 12 15 21 26 21 10 0 19 5 19 10 0 6 8 10 18 11 11 0 12 2 4 6 -7 3 -19
-1 -28 -7 -22 -19 -30 -3 -9 20 23 26 11 26 -22 0 -14 -11 -34 -20 -43 -20
-20 0 -29 -17 -40 -72 -4 -23 -3 -39 3 -41 18 -6 -3 -27 -27 -27 -13 0 -29 -7
-36 -15 -7 -9 -27 -26 -43 -37 l-30 -21 5 26 c3 14 2 25 -2 22 -3 -2 -6 15 -6
38 1 23 -5 47 -12 52 -9 8 0 17 38 37 51 27 51 27 45 5 -5 -19 -5 -20 5 -4 6
9 8 22 5 27 -3 6 1 10 9 10 21 0 20 13 -1 39 -14 16 -21 18 -33 10 -13 -9 -13
-10 2 -6 25 8 30 -21 8 -43 -18 -18 -20 -18 -21 -2 0 14 -2 14 -9 -3 -8 -20
-70 -63 -70 -48 0 4 -5 1 -10 -7 -16 -25 -12 -50 9 -50 13 0 18 -7 17 -22 -2
-35 -29 -27 -38 10 -7 24 -13 32 -24 28 -9 -3 -18 -6 -20 -6 -15 0 0 -29 17
-33 15 -4 20 -11 15 -22 -3 -9 -2 -13 4 -10 11 7 25 -59 15 -74 -10 -17 -43
-13 -48 7 -4 16 -5 16 -6 -1 -1 -14 -6 -17 -21 -12 -14 4 -30 -2 -52 -20 -30
-25 -33 -26 -39 -9 -7 17 -8 16 -8 -3 -1 -13 -7 -23 -13 -23 -7 0 -22 -12 -32
-27 -11 -14 -14 -23 -8 -19 16 10 15 -9 -1 -23 -8 -6 -18 -7 -22 -3 -5 4 -5 2
-1 -5 4 -7 0 -26 -8 -42 -13 -23 -13 -30 -2 -34 22 -9 36 8 43 49 8 51 39 101
66 110 12 3 30 13 39 21 11 10 26 13 44 9 44 -11 130 22 186 73 50 45 51 45
116 43 72 -3 98 -13 107 -41 9 -31 -39 -114 -103 -178 -31 -32 -43 -48 -27
-36 17 11 46 38 66 59 20 22 47 47 60 56 18 13 21 19 11 26 -10 7 -9 16 3 46
9 20 13 41 9 47 -3 6 12 27 33 47 25 24 38 44 35 56 -2 10 2 22 9 26 9 6 -1
22 -34 57 -26 26 -43 49 -38 51 10 3 -33 125 -57 158 -25 34 -93 58 -145 51
-36 -5 -48 -2 -81 24 -46 34 -104 39 -128 12z m292 -168 c0 -13 -11 -36 -23
-51 l-24 -27 -26 19 c-31 22 -35 54 -9 76 39 34 82 25 82 -17z m-194 -372
c-10 -11 -38 8 -33 21 3 8 1 17 -6 20 -9 3 -8 7 3 15 12 8 18 4 28 -20 7 -17
11 -34 8 -36z"/>
<path d="M1623 1425 c1 -11 8 -24 15 -28 6 -4 12 -16 12 -27 0 -14 -9 -20 -32
-23 l-33 -4 32 -1 c26 -2 34 3 46 28 8 16 12 28 7 27 -4 -1 -17 9 -28 23 -18
23 -20 23 -19 5z"/>
<path d="M1424 1175 c-4 -8 -18 -15 -33 -16 l-26 0 25 -11 c14 -5 34 -15 45
-21 18 -9 18 -8 7 6 -16 19 -8 37 16 37 15 0 15 2 2 10 -21 14 -30 12 -36 -5z"/>
<path d="M1467 1106 c-10 -25 -9 -28 6 -23 6 2 18 -5 25 -17 12 -20 13 -20 7
4 -6 24 -5 24 10 -3 9 -16 20 -47 25 -70 l9 -42 -3 41 c-4 45 -26 99 -38 93
-4 -2 -13 5 -21 15 -13 17 -14 18 -20 2z"/>
<path d="M1691 1078 c0 -16 4 -28 10 -28 5 0 8 -4 4 -9 -6 -11 13 -26 22 -17
4 3 -1 14 -9 23 -9 10 -18 27 -21 38 -4 15 -5 13 -6 -7z"/>
<path d="M1131 1073 c13 -15 11 -16 -11 -10 -24 6 -24 6 -5 -9 11 -8 29 -12
40 -9 11 4 25 7 32 7 7 1 10 5 7 9 -2 5 -11 6 -18 3 -7 -3 -19 2 -26 11 -7 8
-17 15 -22 15 -6 0 -4 -8 3 -17z"/>
<path d="M1030 944 c0 -15 27 -44 41 -44 14 0 11 11 -8 32 -9 10 -11 18 -5 18
6 0 14 -4 17 -10 3 -5 11 -10 18 -10 6 0 3 6 -8 14 -25 16 -55 17 -55 0z"/>
<path d="M1341 951 c-11 -7 -9 -10 10 -13 13 -1 28 -13 34 -25 12 -27 37 -32
28 -5 -8 24 -34 52 -47 52 -6 0 -17 -4 -25 -9z"/>
<path d="M1980 875 c-12 -20 -28 -42 -35 -49 -12 -11 -9 -13 16 -11 28 2 55
15 31 15 -7 0 -5 8 5 20 17 20 25 60 12 60 -4 0 -17 -16 -29 -35z"/>
<path d="M1838 836 c-43 -41 -77 -62 -137 -85 -44 -17 -96 -31 -116 -31 -19 0
-35 -4 -35 -10 0 -13 16 -12 75 4 108 31 152 53 210 104 35 32 72 73 63 72 -2
-1 -29 -25 -60 -54z"/>
<path d="M1100 807 c0 -27 32 -58 60 -56 10 0 11 2 2 6 -6 2 -10 8 -7 12 2 5
-9 21 -25 36 l-30 29 0 -27z"/>
<path d="M1266 821 c-9 -14 30 -51 54 -51 11 0 20 5 20 10 0 6 -9 10 -19 10
-11 0 -26 9 -34 21 -9 12 -17 16 -21 10z"/>
<path d="M1014 792 c11 -12 15 -22 10 -22 -14 0 19 -20 34 -20 22 0 9 20 -28
42 l-35 22 19 -22z"/>
<path d="M2061 778 c-1 -10 -7 -18 -15 -18 -8 0 -17 -7 -20 -16 -9 -23 -7 -34
4 -34 6 0 10 5 10 12 0 6 7 19 16 29 9 10 14 24 11 31 -4 8 -6 7 -6 -4z"/>
<path d="M1764 729 c-4 -7 -3 -9 3 -6 18 12 22 -19 5 -35 -21 -19 -52 -57 -52
-63 0 -3 12 -5 26 -5 20 0 25 4 20 16 -8 21 14 49 38 49 11 0 20 6 22 13 1 7
0 8 -3 2 -7 -15 -23 -12 -23 4 0 21 -26 40 -36 25z"/>
<path d="M1435 719 c22 -4 56 -8 75 -7 33 0 32 1 -10 9 -25 4 -58 7 -75 7 -26
0 -25 -1 10 -9z"/>
<path d="M1708 707 c-14 -5 -31 -21 -37 -34 -14 -32 -14 -33 7 -30 20 3 56 36
65 60 7 19 3 19 -35 4z"/>
<path d="M1446 664 c-10 -27 4 -35 30 -17 19 12 22 18 12 24 -20 13 -35 11
-42 -7z"/>
<path d="M1541 671 c-7 -5 -11 -13 -7 -19 3 -6 -9 -16 -29 -23 -22 -8 -30 -16
-23 -20 7 -5 17 -4 23 1 5 4 21 10 35 12 14 1 25 8 25 15 0 16 16 30 40 36 12
3 6 5 -15 6 -19 0 -41 -3 -49 -8z"/>
<path d="M1186 661 c-3 -5 1 -14 9 -21 8 -7 12 -17 8 -24 -4 -7 -1 -6 9 1 8 7
18 9 22 5 5 -4 6 2 4 13 -5 31 -39 48 -52 26z"/>
<path d="M1642 628 c4 -10 1 -19 -8 -22 -24 -9 -36 -7 -28 5 4 7 1 10 -6 7
-23 -7 -22 -25 2 -32 64 -17 94 2 57 37 -17 16 -21 17 -17 5z"/>
<path d="M1397 613 c-13 -12 -7 -25 8 -19 8 3 21 -1 29 -9 12 -12 15 -12 19 5
6 24 -37 42 -56 23z"/>
</g>
</svg>
